<svg width="200" height="200" viewBox="0 0 200 200" version="1.1" xmlns="http://www.w3.org/2000/svg" xmlns:xlink="http://www.w3.org/1999/xlink" xmlns:figma="http://www.figma.com/figma/ns">
<title>Rain</title>
<desc>Created using Figma</desc>
<g id="Canvas" transform="translate(345 211)" figma:type="canvas">
<mask id="mask0_alpha" mask-type="alpha">
<path d="M -345 -211L -145 -211L -145 -11L -345 -11L -345 -211Z" fill="#FFFFFF"/>
</mask>
<g id="Rain" mask="url(#mask0_alpha)" figma:type="frame">
<path d="M -345 -211L -145 -211L -145 -11L -345 -11L -345 -211Z" fill="#FFFFFF"/>
<g id="Group" figma:type="frame">
<g id="Ellipse" figma:type="vector">
<mask id="mask1_outline_ins">
<use xlink:href="#path0_fill" fill="white" transform="translate(-284 -155)"/>
</mask>
<g mask="url(#mask1_outline_ins)">
<use xlink:href="#path1_stroke_2x" transform="translate(-284 -155)"/>
</g>
</g>
<g id="Ellipse" figma:type="vector">
<mask id="mask2_outline_ins">
<use xlink:href="#path2_fill" fill="white" transform="translate(-217 -188)"/>
</mask>
<g mask="url(#mask2_outline_ins)">
<use xlink:href="#path3_stroke_2x" transform="translate(-217 -188)"/>
</g>
</g>
<g id="Ellipse" figma:type="vector">
<mask id="mask3_outline_ins">
<use xlink:href="#path2_fill" fill="white" transform="translate(-316 -188)"/>
</mask>
<g mask="url(#mask3_outline_ins)">
<use xlink:href="#path3_stroke_2x" transform="translate(-316 -188)"/>
</g>
</g>
</g>
</g>
</g>
<defs>
<path id="path0_fill" d="M 39.5 120C 61.3152 120 79 102.295 79 80.4545C 79 58.6142 39.5 0 39.5 0C 39.5 0 0 58.6142 0 80.4545C 0 102.295 17.6848 120 39.5 120Z"/>
<path id="path1_stroke_2x" d="M 39.5 0L 41.9878 -1.67654L 37.0122 -1.67654L 39.5 0ZM 76 80.4545C 76 100.641 59.6551 117 39.5 117L 39.5 123C 62.9754 123 82 103.949 82 80.4545L 76 80.4545ZM 39.5 117C 19.3449 117 3 100.641 3 80.4545L -3 80.4545C -3 103.949 16.0246 123 39.5 123L 39.5 117ZM 39.5 0C 37.0122 1.67654 37.0122 1.67655 37.0124 1.67678C 37.0126 1.67716 37.0129 1.67762 37.0134 1.67837C 37.0145 1.68001 37.016 1.68226 37.0182 1.68553C 37.0228 1.69236 37.0294 1.70214 37.0385 1.7157C 37.0571 1.74338 37.0843 1.78383 37.1209 1.83844C 37.1948 1.94881 37.3032 2.11105 37.4463 2.32591C 37.7339 2.75798 38.1529 3.39028 38.6893 4.20752C 39.7655 5.84698 41.2959 8.20241 43.1387 11.107C 46.8315 16.9269 51.731 24.8736 56.6415 33.5189C 61.5558 42.169 66.419 51.3984 70.0744 59.86C 73.7708 68.4109 76 75.6685 76 80.4545L 82 80.4545C 82 74.3204 79.2917 66.0611 75.5818 57.4792C 71.831 48.8081 66.8192 39.2888 61.8585 30.5553C 56.894 21.817 51.9185 13.7452 48.205 7.89247C 46.3448 4.9607 44.7892 2.56627 43.7052 0.914955C 43.1616 0.0868058 42.732 -0.561515 42.4409 -0.998712C 42.2947 -1.21849 42.1813 -1.38805 42.1058 -1.50082C 42.0676 -1.55778 42.0381 -1.60173 42.0187 -1.63056C 42.0089 -1.64527 42.0011 -1.65676 41.9962 -1.66416C 41.9936 -1.668 41.9915 -1.67109 41.9902 -1.67302C 41.9895 -1.67405 41.9889 -1.67493 41.9886 -1.67544C 41.9881 -1.6761 41.9878 -1.67654 39.5 0ZM 3 80.4545C 3 75.6685 5.22918 68.4109 8.92559 59.86C 12.581 51.3984 17.4442 42.169 22.3585 33.5189C 27.269 24.8736 32.1685 16.9269 35.8613 11.107C 37.7041 8.20241 39.2345 5.84698 40.3107 4.20752C 40.8471 3.39028 41.2661 2.75798 41.5537 2.32591C 41.6968 2.11105 41.8052 1.94881 41.8791 1.83844C 41.9157 1.78383 41.9429 1.74338 41.9615 1.7157C 41.9706 1.70214 41.9772 1.69236 41.9818 1.68553C 41.984 1.68226 41.9855 1.68001 41.9866 1.67837C 41.9871 1.67762 41.9874 1.67716 41.9876 1.67678C 41.9878 1.67655 41.9878 1.67654 39.5 0C 37.0122 -1.67654 37.0119 -1.6761 37.0114 -1.67544C 37.0111 -1.67493 37.0105 -1.67405 37.0098 -1.67302C 37.0085 -1.67109 37.0064 -1.668 37.0038 -1.66416C 36.9989 -1.65676 36.9911 -1.64527 36.9813 -1.63056C 36.9619 -1.60173 36.9324 -1.55778 36.8942 -1.50082C 36.8187 -1.38805 36.7053 -1.21849 36.5591 -0.998712C 36.268 -0.561515 35.8384 0.0868058 35.2948 0.914955C 34.2108 2.56627 32.6552 4.9607 30.795 7.89247C 27.0815 13.7452 22.106 21.817 17.1415 30.5553C 12.1808 39.2888 7.16898 48.8081 3.41816 57.4792C -0.291679 66.0611 -3 74.3204 -3 80.4545L 3 80.4545Z"/>
<path id="path2_fill" d="M 21.5 66C 33.3741 66 43 56.2622 43 44.25C 43 32.2378 21.5 0 21.5 0C 21.5 0 0 32.2378 0 44.25C 0 56.2622 9.62588 66 21.5 66Z"/>
<path id="path3_stroke_2x" d="M 21.5 0L 23.9959 -1.66454L 19.0041 -1.66454L 21.5 0ZM 40 44.25C 40 54.6381 31.6847 63 21.5 63L 21.5 69C 35.0636 69 46 57.8863 46 44.25L 40 44.25ZM 21.5 63C 11.3153 63 3 54.6381 3 44.25L -3 44.25C -3 57.8863 7.93642 69 21.5 69L 21.5 63ZM 21.5 0C 19.0041 1.66454 19.0041 1.66445 19.0041 1.66448C 19.0042 1.66466 19.0043 1.66482 19.0046 1.66517C 19.0051 1.66601 19.0058 1.66705 19.0069 1.66873C 19.0093 1.67235 19.0127 1.67735 19.0175 1.68455C 19.0274 1.69951 19.0417 1.72097 19.0612 1.75048C 19.1011 1.81065 19.1591 1.89824 19.2362 2.0153C 19.392 2.25179 19.6177 2.59596 19.9081 3.04299C 20.4921 3.94203 21.3195 5.22878 22.3187 6.82018C 24.3241 10.0138 26.974 14.3565 29.6349 19.0906C 32.2995 23.8295 34.9138 28.841 36.8824 33.4483C 38.8911 38.1435 40 41.9142 40 44.25L 46 44.25C 46 40.5797 44.4214 35.8161 42.3988 31.0883C 40.3362 26.2725 37.5755 20.9723 34.8651 16.1503C 32.151 11.3234 29.4259 6.85591 27.4 3.62951C 26.3836 2.01094 25.5313 0.685255 24.9396 -0.225629C 24.6421 -0.68356 24.4059 -1.04373 24.2467 -1.28534C 24.1664 -1.40733 24.1036 -1.50223 24.0621 -1.56479C 24.041 -1.59664 24.0244 -1.6216 24.0137 -1.63772C 24.0082 -1.64607 24.0037 -1.65278 24.0009 -1.65697C 23.9994 -1.65921 23.9981 -1.6611 23.9974 -1.66222C 23.997 -1.66285 23.9966 -1.66343 23.9964 -1.66375C 23.9961 -1.6642 23.9959 -1.66454 21.5 0ZM 3 44.25C 3 41.9142 4.10893 38.1435 6.11757 33.4483C 8.08621 28.841 10.7005 23.8295 13.3651 19.0906C 16.026 14.3565 18.6759 10.0138 20.6813 6.82018C 21.6805 5.22878 22.5079 3.94203 23.0919 3.04299C 23.3823 2.59596 23.608 2.25179 23.7638 2.0153C 23.8409 1.89824 23.8989 1.81065 23.9388 1.75048C 23.9583 1.72097 23.9726 1.69951 23.9825 1.68455C 23.9873 1.67735 23.9907 1.67235 23.9931 1.66873C 23.9942 1.66705 23.9949 1.66601 23.9954 1.66517C 23.9957 1.66482 23.9958 1.66466 23.9959 1.66448C 23.9959 1.66445 23.9959 1.66454 21.5 0C 19.0041 -1.66454 19.0039 -1.6642 19.0036 -1.66375C 19.0034 -1.66343 19.003 -1.66285 19.0026 -1.66222C 19.0019 -1.6611 19.0006 -1.65921 18.9991 -1.65697C 18.9963 -1.65278 18.9918 -1.64607 18.9863 -1.63772C 18.9756 -1.6216 18.959 -1.59664 18.9379 -1.56479C 18.8964 -1.50223 18.8336 -1.40733 18.7533 -1.28534C 18.5941 -1.04373 18.3579 -0.68356 18.0604 -0.225629C 17.4687 0.685255 16.6164 2.01094 15.6 3.62951C 13.5741 6.85591 10.849 11.3234 8.13492 16.1503C 5.42448 20.9723 2.66379 26.2725 0.601179 31.0883C -1.42143 35.8161 -3 40.5797 -3 44.25L 3 44.25Z"/>
</defs>
</svg>
