<svg width="200" height="200" viewBox="0 0 200 200" version="1.1" xmlns="http://www.w3.org/2000/svg" xmlns:xlink="http://www.w3.org/1999/xlink" xmlns:figma="http://www.figma.com/figma/ns">
<title>Wind</title>
<desc>Created using Figma</desc>
<g id="Canvas" transform="translate(345 -251)" figma:type="canvas">
<mask id="mask0_alpha" mask-type="alpha">
<path d="M -345 251L -145 251L -145 451L -345 451L -345 251Z" fill="#FFFFFF"/>
</mask>
<g id="Wind" mask="url(#mask0_alpha)" figma:type="frame">
<path d="M -345 251L -145 251L -145 451L -345 451L -345 251Z" fill="#FFFFFF"/>
<g id="Group" figma:type="frame">
<g id="Ellipse 2" figma:type="vector">
<use xlink:href="#path0_stroke" transform="matrix(1 0 0 -1 -326 404)"/>
</g>
<g id="Ellipse 2" figma:type="vector">
<use xlink:href="#path1_stroke" transform="translate(-326 311)"/>
</g>
<g id="Ellipse 2" figma:type="vector">
<use xlink:href="#path2_stroke" transform="translate(-326 298)"/>
</g>
</g>
</g>
</g>
<defs>
<path id="path0_stroke" d="M 108.563 15.9336C 108.25 16.7007 108.618 17.5762 109.385 17.889C 110.152 18.2018 111.028 17.8335 111.341 17.0664L 108.563 15.9336ZM 0 51.5C -0.828427 51.5 -1.5 52.1716 -1.5 53C -1.5 53.8284 -0.828427 54.5 0 54.5L 0 51.5ZM 159.5 26.5C 159.5 40.3071 148.307 51.5 134.5 51.5L 134.5 54.5C 149.964 54.5 162.5 41.964 162.5 26.5L 159.5 26.5ZM 134.5 1.5C 148.307 1.5 159.5 12.6929 159.5 26.5L 162.5 26.5C 162.5 11.036 149.964 -1.5 134.5 -1.5L 134.5 1.5ZM 111.341 17.0664C 115.065 7.93286 124.033 1.5 134.5 1.5L 134.5 -1.5C 122.772 -1.5 112.732 5.71001 108.563 15.9336L 111.341 17.0664ZM 134.5 51.5L 0 51.5L 0 54.5L 134.5 54.5L 134.5 51.5Z"/>
<path id="path1_stroke" d="M 34.8116 4.71337C 34.4917 5.47757 34.852 6.35634 35.6162 6.67616C 36.3804 6.99599 37.2592 6.63574 37.579 5.87154L 34.8116 4.71337ZM 0 15.5C -0.828427 15.5 -1.5 16.1716 -1.5 17C -1.5 17.8284 -0.828427 18.5 0 18.5L 0 15.5ZM 51.5 8.5C 51.5 12.3295 48.3028 15.5 44.2764 15.5L 44.2764 18.5C 49.8858 18.5 54.5 14.0593 54.5 8.5L 51.5 8.5ZM 44.2764 1.5C 48.3028 1.5 51.5 4.67049 51.5 8.5L 54.5 8.5C 54.5 2.94067 49.8858 -1.5 44.2764 -1.5L 44.2764 1.5ZM 37.579 5.87154C 38.6459 3.32219 41.2308 1.5 44.2764 1.5L 44.2764 -1.5C 40.0156 -1.5 36.3431 1.05382 34.8116 4.71337L 37.579 5.87154ZM 44.2764 15.5L 0 15.5L 0 18.5L 44.2764 18.5L 44.2764 15.5Z"/>
<path id="path2_stroke" d="M 85.3422 12.5113C 85.0306 13.2789 85.4003 14.1538 86.1679 14.4653C 86.9355 14.7769 87.8103 14.4072 88.1219 13.6396L 85.3422 12.5113ZM 0 40.5C -0.828427 40.5 -1.5 41.1716 -1.5 42C -1.5 42.8284 -0.828427 43.5 0 43.5L 0 40.5ZM 125.5 21C 125.5 31.7761 116.806 40.5 106.096 40.5L 106.096 43.5C 118.476 43.5 128.5 33.4199 128.5 21L 125.5 21ZM 106.096 1.5C 116.806 1.5 125.5 10.2239 125.5 21L 128.5 21C 128.5 8.5801 118.476 -1.5 106.096 -1.5L 106.096 1.5ZM 88.1219 13.6396C 91.0147 6.51298 97.977 1.5 106.096 1.5L 106.096 -1.5C 96.7078 -1.5 88.6759 4.29835 85.3422 12.5113L 88.1219 13.6396ZM 106.096 40.5L 0 40.5L 0 43.5L 106.096 43.5L 106.096 40.5Z"/>
</defs>
</svg>
